<mxfile host="app.diagrams.net" modified="2024-04-22T12:48:15.820Z" agent="Mozilla/5.0 (Windows NT 10.0; Win64; x64) AppleWebKit/537.36 (KHTML, like Gecko) Chrome/123.0.0.0 Safari/537.36" etag="xEz5Xpf878-O8EBw-yK0" version="24.2.3" type="github">
  <diagram name="Page-1" id="E6rwygBIZ4BEm5WcYXy1">
    <mxGraphModel dx="1290" dy="530" grid="1" gridSize="10" guides="1" tooltips="1" connect="1" arrows="1" fold="1" page="1" pageScale="1" pageWidth="850" pageHeight="1100" math="0" shadow="0">
      <root>
        <mxCell id="0" />
        <mxCell id="1" parent="0" />
        <mxCell id="_eC_1As1F1sKEDU-Wr1Y-1" value="" style="group" vertex="1" connectable="0" parent="1">
          <mxGeometry x="110" y="160" width="120" height="110" as="geometry" />
        </mxCell>
        <mxCell id="_eC_1As1F1sKEDU-Wr1Y-2" value="" style="group" vertex="1" connectable="0" parent="_eC_1As1F1sKEDU-Wr1Y-1">
          <mxGeometry width="120" height="110" as="geometry" />
        </mxCell>
        <mxCell id="_eC_1As1F1sKEDU-Wr1Y-3" value="" style="ellipse;whiteSpace=wrap;html=1;" vertex="1" parent="_eC_1As1F1sKEDU-Wr1Y-2">
          <mxGeometry width="120" height="110" as="geometry" />
        </mxCell>
        <mxCell id="_eC_1As1F1sKEDU-Wr1Y-4" value="" style="line;strokeWidth=2;html=1;rotation=-90;" vertex="1" parent="_eC_1As1F1sKEDU-Wr1Y-2">
          <mxGeometry x="5.47" y="48.25" width="109.07" height="13.75" as="geometry" />
        </mxCell>
        <mxCell id="_eC_1As1F1sKEDU-Wr1Y-5" value="" style="line;strokeWidth=2;html=1;" vertex="1" parent="_eC_1As1F1sKEDU-Wr1Y-2">
          <mxGeometry x="60" y="50" width="60" height="13.75" as="geometry" />
        </mxCell>
        <mxCell id="_eC_1As1F1sKEDU-Wr1Y-6" value="000" style="text;strokeColor=none;fillColor=none;html=1;align=center;verticalAlign=middle;whiteSpace=wrap;rounded=0;fontSize=16;" vertex="1" parent="_eC_1As1F1sKEDU-Wr1Y-2">
          <mxGeometry x="65" y="13.590000000000003" width="50" height="50" as="geometry" />
        </mxCell>
        <mxCell id="_eC_1As1F1sKEDU-Wr1Y-7" value="000" style="text;strokeColor=none;fillColor=none;html=1;align=center;verticalAlign=middle;whiteSpace=wrap;rounded=0;fontSize=16;" vertex="1" parent="_eC_1As1F1sKEDU-Wr1Y-2">
          <mxGeometry x="60" y="55" width="50" height="50" as="geometry" />
        </mxCell>
        <mxCell id="_eC_1As1F1sKEDU-Wr1Y-8" value="000" style="text;strokeColor=none;fillColor=none;html=1;align=center;verticalAlign=middle;whiteSpace=wrap;rounded=0;fontSize=16;" vertex="1" parent="_eC_1As1F1sKEDU-Wr1Y-2">
          <mxGeometry x="1.8799999999999955" y="31.72" width="50" height="50" as="geometry" />
        </mxCell>
      </root>
    </mxGraphModel>
  </diagram>
</mxfile>
